ffmpeg started on 2025-06-07 at 16:17:54
Report written to "D:\Convert\FFMetrics\reports\psnr_report-6.txt"
Log level: 32
Command line:
ffmpeg -hide_banner -nostdin -i "G:\\\xc0\xed\xe8\xec\xe5\\\xce\xed\xe3\xee\xe8\xed\xe3\xe8\\!_36_\xce\xf1\xe5\xed\xfc_2024\\DreamCast\\\xd6\xe5\xeb\xe8\xf2\xe5\xeb\xfc, \xea\xee\xf2\xee\xf0\xee\xe3\xee \xe8\xf1\xea\xeb\xfe\xf7\xe8\xeb\xe8 \xe8\xe7 \xe3\xf0\xf3\xef\xef\xfb, \xee\xea\xe0\xe7\xe0\xeb\xf1\xff \xf1\xe8\xeb\xfc\xed\xe5\xe9\xf8\xe8\xec!\\[DC] sonochiyushi - 11_Telegram_HEVC.mkv" -i "G:\\\xc0\xed\xe8\xec\xe5\\\xce\xed\xe3\xee\xe8\xed\xe3\xe8\\!_36_\xce\xf1\xe5\xed\xfc_2024\\DreamCast\\\xd6\xe5\xeb\xe8\xf2\xe5\xeb\xfc, \xea\xee\xf2\xee\xf0\xee\xe3\xee \xe8\xf1\xea\xeb\xfe\xf7\xe8\xeb\xe8 \xe8\xe7 \xe3\xf0\xf3\xef\xef\xfb, \xee\xea\xe0\xe7\xe0\xeb\xf1\xff \xf1\xe8\xeb\xfc\xed\xe5\xe9\xf8\xe8\xec!\\[DC] sonochiyushi - 11_Telegram.mp4" -lavfi "[0:v]settb=AVTB,setpts=PTS-STARTPTS,format=pix_fmts=yuv420p10,fps=24000/1001,scale=1920:1080:flags=bicubic[main];[1:v]settb=AVTB,setpts=PTS-STARTPTS,format=pix_fmts=yuv420p,fps=24000/1001,scale=1920:1080:flags=bicubic[ref];[main][ref]psnr=eof_action=endall:stats_file='D\\:/Convert/FFMetrics/logs/psnr_logfile-6.txt'" -f null -
Input #0, matroska,webm, from 'G:\Аниме\Онгоинги\!_36_Осень_2024\DreamCast\Целитель, которого исключили из группы, оказался сильнейшим!\[DC] sonochiyushi - 11_Telegram_HEVC.mkv':
  Metadata:
    COMPATIBLE_BRANDS: isomiso2avc1mp41
    MAJOR_BRAND     : isom
    MINOR_VERSION   : 512
    ENCODER         : Lavf61.7.100
  Duration: 00:23:30.69, start: -0.021000, bitrate: 1141 kb/s
  Stream #0:0: Video: hevc (Main 10), yuv420p10le(tv, bt709, progressive), 1920x1080 [SAR 1:1 DAR 16:9], 23.98 fps, 23.98 tbr, 1k tbn (default)
      Metadata:
        HANDLER_NAME    : VideoHandler
        VENDOR_ID       : [0][0][0][0]
        ENCODER         : Lavc61.19.100 libx265
        BPS             : 944327
        DURATION        : 00:23:30.533708333
        NUMBER_OF_FRAMES: 33819
        NUMBER_OF_BYTES : 166500636
        _STATISTICS_WRITING_APP: mkvpropedit v66.0.0 ('Josie') 64-bit
        _STATISTICS_WRITING_DATE_UTC: 2025-06-05 09:20:08
        _STATISTICS_TAGS: BPS DURATION NUMBER_OF_FRAMES NUMBER_OF_BYTES
  Stream #0:1: Audio: aac (LC), 48000 Hz, stereo, fltp (default)
      Metadata:
        HANDLER_NAME    : SoundHandler
        VENDOR_ID       : [0][0][0][0]
        ENCODER         : Lavc61.19.100 aac
        BPS             : 193695
        DURATION        : 00:23:30.688000000
        NUMBER_OF_FRAMES: 66127
        NUMBER_OF_BYTES : 34155568
        _STATISTICS_WRITING_APP: mkvpropedit v66.0.0 ('Josie') 64-bit
        _STATISTICS_WRITING_DATE_UTC: 2025-06-05 09:20:08
        _STATISTICS_TAGS: BPS DURATION NUMBER_OF_FRAMES NUMBER_OF_BYTES
Input #1, mov,mp4,m4a,3gp,3g2,mj2, from 'G:\Аниме\Онгоинги\!_36_Осень_2024\DreamCast\Целитель, которого исключили из группы, оказался сильнейшим!\[DC] sonochiyushi - 11_Telegram.mp4':
  Metadata:
    major_brand     : isom
    minor_version   : 512
    compatible_brands: isomiso2avc1mp41
    encoder         : Lavf61.1.100
  Duration: 00:23:30.65, start: 0.000000, bitrate: 3570 kb/s
  Stream #1:0[0x1](und): Video: h264 (High) (avc1 / 0x31637661), yuv420p(tv, bt709, progressive), 1920x1080 [SAR 1:1 DAR 16:9], 3422 kb/s, 23.98 fps, 23.98 tbr, 24k tbn (default)
      Metadata:
        handler_name    : VideoHandler
        vendor_id       : [0][0][0][0]
        encoder         : Lavc61.3.100 h264_qsv
  Stream #1:1[0x2](und): Audio: aac (HE-AACv2) (mp4a / 0x6134706D), 48000 Hz, stereo, fltp, 144 kb/s (default)
      Metadata:
        handler_name    : SoundHandler
        vendor_id       : [0][0][0][0]
Stream mapping:
  Stream #0:0 (hevc) -> settb:default
  Stream #1:0 (h264) -> settb:default
  psnr:default -> Stream #0:0 (wrapped_avframe)
  Stream #0:1 -> #0:1 (aac (native) -> pcm_s16le (native))
Output #0, null, to 'pipe:':
  Metadata:
    COMPATIBLE_BRANDS: isomiso2avc1mp41
    MAJOR_BRAND     : isom
    MINOR_VERSION   : 512
    encoder         : Lavf61.7.100
  Stream #0:0: Video: wrapped_avframe, yuv420p10le(tv, bt709, progressive), 1920x1080 [SAR 1:1 DAR 16:9], q=2-31, 200 kb/s, 23.98 fps, 23.98 tbn
      Metadata:
        encoder         : Lavc61.19.100 wrapped_avframe
  Stream #0:1: Audio: pcm_s16le, 48000 Hz, stereo, s16, 1536 kb/s (default)
      Metadata:
        HANDLER_NAME    : SoundHandler
        VENDOR_ID       : [0][0][0][0]
        _STATISTICS_TAGS: BPS DURATION NUMBER_OF_FRAMES NUMBER_OF_BYTES
        BPS             : 193695
        DURATION        : 00:23:30.688000000
        NUMBER_OF_FRAMES: 66127
        NUMBER_OF_BYTES : 34155568
        _STATISTICS_WRITING_APP: mkvpropedit v66.0.0 ('Josie') 64-bit
        _STATISTICS_WRITING_DATE_UTC: 2025-06-05 09:20:08
        encoder         : Lavc61.19.100 pcm_s16le
frame=   67 fps=0.0 q=-0.0 size=N/A time=00:00:02.79 bitrate=N/A speed=5.42x    frame=  276 fps=269 q=-0.0 size=N/A time=00:00:11.51 bitrate=N/A speed=11.2x    frame=  512 fps=330 q=-0.0 size=N/A time=00:00:21.35 bitrate=N/A speed=13.7x    frame=  752 fps=364 q=-0.0 size=N/A time=00:00:31.36 bitrate=N/A speed=15.2x    frame= 1004 fps=390 q=-0.0 size=N/A time=00:00:41.87 bitrate=N/A speed=16.3x    frame= 1270 fps=410 q=-0.0 size=N/A time=00:00:52.96 bitrate=N/A speed=17.1x    frame= 1526 fps=423 q=-0.0 size=N/A time=00:01:03.64 bitrate=N/A speed=17.6x    frame= 1804 fps=436 q=-0.0 size=N/A time=00:01:15.24 bitrate=N/A speed=18.2x    frame= 2074 fps=445 q=-0.0 size=N/A time=00:01:26.50 bitrate=N/A speed=18.6x    frame= 2357 fps=456 q=-0.0 size=N/A time=00:01:38.30 bitrate=N/A speed=  19x    frame= 2596 fps=457 q=-0.0 size=N/A time=00:01:48.27 bitrate=N/A speed=19.1x    frame= 2796 fps=450 q=-0.0 size=N/A time=00:01:56.61 bitrate=N/A speed=18.8x    frame= 3035 fps=452 q=-0.0 size=N/A time=00:02:06.58 bitrate=N/A speed=18.8x    frame= 3246 fps=449 q=-0.0 size=N/A time=00:02:15.38 bitrate=N/A speed=18.7x    frame= 3460 fps=446 q=-0.0 size=N/A time=00:02:24.31 bitrate=N/A speed=18.6x    frame= 3653 fps=442 q=-0.0 size=N/A time=00:02:32.36 bitrate=N/A speed=18.4x    frame= 3842 fps=438 q=-0.0 size=N/A time=00:02:40.24 bitrate=N/A speed=18.3x    frame= 4056 fps=436 q=-0.0 size=N/A time=00:02:49.16 bitrate=N/A speed=18.2x    frame= 4250 fps=433 q=-0.0 size=N/A time=00:02:57.26 bitrate=N/A speed=18.1x    frame= 4412 fps=427 q=-0.0 size=N/A time=00:03:04.01 bitrate=N/A speed=17.8x    frame= 4651 fps=429 q=-0.0 size=N/A time=00:03:13.98 bitrate=N/A speed=17.9x    frame= 4926 fps=434 q=-0.0 size=N/A time=00:03:25.45 bitrate=N/A speed=18.1x    frame= 5152 fps=434 q=-0.0 size=N/A time=00:03:34.88 bitrate=N/A speed=18.1x    frame= 5418 fps=437 q=-0.0 size=N/A time=00:03:45.97 bitrate=N/A speed=18.2x    frame= 5704 fps=442 q=-0.0 size=N/A time=00:03:57.90 bitrate=N/A speed=18.4x    frame= 5960 fps=444 q=-0.0 size=N/A time=00:04:08.58 bitrate=N/A speed=18.5x    frame= 6219 fps=446 q=-0.0 size=N/A time=00:04:19.38 bitrate=N/A speed=18.6x    frame= 6506 fps=450 q=-0.0 size=N/A time=00:04:31.35 bitrate=N/A speed=18.8x    frame= 6761 fps=452 q=-0.0 size=N/A time=00:04:41.99 bitrate=N/A speed=18.8x    frame= 7020 fps=453 q=-0.0 size=N/A time=00:04:52.79 bitrate=N/A speed=18.9x    frame= 7276 fps=455 q=-0.0 size=N/A time=00:05:03.46 bitrate=N/A speed=  19x    frame= 7574 fps=458 q=-0.0 size=N/A time=00:05:15.89 bitrate=N/A speed=19.1x    frame= 7838 fps=460 q=-0.0 size=N/A time=00:05:26.90 bitrate=N/A speed=19.2x    frame= 8117 fps=463 q=-0.0 size=N/A time=00:05:38.54 bitrate=N/A speed=19.3x    frame= 8386 fps=464 q=-0.0 size=N/A time=00:05:49.76 bitrate=N/A speed=19.4x    frame= 8667 fps=466 q=-0.0 size=N/A time=00:06:01.48 bitrate=N/A speed=19.5x    frame= 8920 fps=467 q=-0.0 size=N/A time=00:06:12.03 bitrate=N/A speed=19.5x    frame= 9185 fps=469 q=-0.0 size=N/A time=00:06:23.09 bitrate=N/A speed=19.5x    frame= 9469 fps=470 q=-0.0 size=N/A time=00:06:34.93 bitrate=N/A speed=19.6x    frame= 9759 fps=473 q=-0.0 size=N/A time=00:06:47.03 bitrate=N/A speed=19.7x    frame=10047 fps=475 q=-0.0 size=N/A time=00:06:59.04 bitrate=N/A speed=19.8x    frame=10325 fps=476 q=-0.0 size=N/A time=00:07:10.63 bitrate=N/A speed=19.9x    frame=10613 fps=478 q=-0.0 size=N/A time=00:07:22.65 bitrate=N/A speed=19.9x    frame=10847 fps=478 q=-0.0 size=N/A time=00:07:32.41 bitrate=N/A speed=19.9x    frame=11081 fps=477 q=-0.0 size=N/A time=00:07:42.17 bitrate=N/A speed=19.9x    frame=11271 fps=475 q=-0.0 size=N/A time=00:07:50.09 bitrate=N/A speed=19.8x    frame=11483 fps=474 q=-0.0 size=N/A time=00:07:58.93 bitrate=N/A speed=19.8x    frame=11738 fps=474 q=-0.0 size=N/A time=00:08:09.57 bitrate=N/A speed=19.8x    frame=12017 fps=475 q=-0.0 size=N/A time=00:08:21.20 bitrate=N/A speed=19.8x    frame=12295 fps=476 q=-0.0 size=N/A time=00:08:32.80 bitrate=N/A speed=19.9x    frame=12509 fps=475 q=-0.0 size=N/A time=00:08:41.72 bitrate=N/A speed=19.8x    frame=12791 fps=477 q=-0.0 size=N/A time=00:08:53.49 bitrate=N/A speed=19.9x    frame=13060 fps=477 q=-0.0 size=N/A time=00:09:04.71 bitrate=N/A speed=19.9x    frame=13337 fps=479 q=-0.0 size=N/A time=00:09:16.26 bitrate=N/A speed=  20x    frame=13618 fps=480 q=-0.0 size=N/A time=00:09:27.98 bitrate=N/A speed=  20x    frame=13895 fps=481 q=-0.0 size=N/A time=00:09:39.53 bitrate=N/A speed=20.1x    frame=14165 fps=482 q=-0.0 size=N/A time=00:09:50.79 bitrate=N/A speed=20.1x    frame=14440 fps=483 q=-0.0 size=N/A time=00:10:02.26 bitrate=N/A speed=20.1x    frame=14702 fps=483 q=-0.0 size=N/A time=00:10:13.19 bitrate=N/A speed=20.1x    frame=14943 fps=483 q=-0.0 size=N/A time=00:10:23.24 bitrate=N/A speed=20.1x    frame=15215 fps=483 q=-0.0 size=N/A time=00:10:34.59 bitrate=N/A speed=20.2x    frame=15449 fps=483 q=-0.0 size=N/A time=00:10:44.35 bitrate=N/A speed=20.1x    frame=15697 fps=483 q=-0.0 size=N/A time=00:10:54.69 bitrate=N/A speed=20.1x    frame=15945 fps=483 q=-0.0 size=N/A time=00:11:05.03 bitrate=N/A speed=20.1x    frame=16204 fps=483 q=-0.0 size=N/A time=00:11:15.84 bitrate=N/A speed=20.1x    frame=16473 fps=483 q=-0.0 size=N/A time=00:11:27.06 bitrate=N/A speed=20.2x    frame=16723 fps=483 q=-0.0 size=N/A time=00:11:37.48 bitrate=N/A speed=20.2x    frame=16964 fps=483 q=-0.0 size=N/A time=00:11:47.54 bitrate=N/A speed=20.2x    frame=17216 fps=483 q=-0.0 size=N/A time=00:11:58.05 bitrate=N/A speed=20.2x    frame=17475 fps=484 q=-0.0 size=N/A time=00:12:08.85 bitrate=N/A speed=20.2x    frame=17723 fps=483 q=-0.0 size=N/A time=00:12:19.19 bitrate=N/A speed=20.2x    frame=17982 fps=484 q=-0.0 size=N/A time=00:12:29.99 bitrate=N/A speed=20.2x    frame=18212 fps=483 q=-0.0 size=N/A time=00:12:39.59 bitrate=N/A speed=20.2x    frame=18442 fps=483 q=-0.0 size=N/A time=00:12:49.18 bitrate=N/A speed=20.1x    frame=18641 fps=482 q=-0.0 size=N/A time=00:12:57.48 bitrate=N/A speed=20.1x    frame=18879 fps=481 q=-0.0 size=N/A time=00:13:07.41 bitrate=N/A speed=20.1x    frame=19078 fps=480 q=-0.0 size=N/A time=00:13:15.71 bitrate=N/A speed=  20x    frame=19339 fps=480 q=-0.0 size=N/A time=00:13:26.59 bitrate=N/A speed=  20x    frame=19619 fps=481 q=-0.0 size=N/A time=00:13:38.27 bitrate=N/A speed=20.1x    frame=19876 fps=481 q=-0.0 size=N/A time=00:13:48.99 bitrate=N/A speed=20.1x    frame=20164 fps=482 q=-0.0 size=N/A time=00:14:01.00 bitrate=N/A speed=20.1x    frame=20446 fps=483 q=-0.0 size=N/A time=00:14:12.76 bitrate=N/A speed=20.1x    frame=20723 fps=484 q=-0.0 size=N/A time=00:14:24.32 bitrate=N/A speed=20.2x    frame=21013 fps=485 q=-0.0 size=N/A time=00:14:36.41 bitrate=N/A speed=20.2x    frame=21279 fps=485 q=-0.0 size=N/A time=00:14:47.51 bitrate=N/A speed=20.2x    frame=21535 fps=485 q=-0.0 size=N/A time=00:14:58.18 bitrate=N/A speed=20.2x    frame=21813 fps=486 q=-0.0 size=N/A time=00:15:09.78 bitrate=N/A speed=20.3x    frame=22053 fps=486 q=-0.0 size=N/A time=00:15:19.79 bitrate=N/A speed=20.3x    frame=22290 fps=485 q=-0.0 size=N/A time=00:15:29.67 bitrate=N/A speed=20.2x    frame=22518 fps=485 q=-0.0 size=N/A time=00:15:39.18 bitrate=N/A speed=20.2x    frame=22726 fps=484 q=-0.0 size=N/A time=00:15:47.86 bitrate=N/A speed=20.2x    frame=22905 fps=482 q=-0.0 size=N/A time=00:15:55.32 bitrate=N/A speed=20.1x    frame=23117 fps=482 q=-0.0 size=N/A time=00:16:04.17 bitrate=N/A speed=20.1x    frame=23361 fps=482 q=-0.0 size=N/A time=00:16:14.34 bitrate=N/A speed=20.1x    frame=23650 fps=482 q=-0.0 size=N/A time=00:16:26.40 bitrate=N/A speed=20.1x    frame=23907 fps=483 q=-0.0 size=N/A time=00:16:37.12 bitrate=N/A speed=20.1x    frame=24134 fps=482 q=-0.0 size=N/A time=00:16:46.58 bitrate=N/A speed=20.1x    frame=24394 fps=482 q=-0.0 size=N/A time=00:16:57.43 bitrate=N/A speed=20.1x    frame=24613 fps=482 q=-0.0 size=N/A time=00:17:06.56 bitrate=N/A speed=20.1x    frame=24842 fps=481 q=-0.0 size=N/A time=00:17:16.11 bitrate=N/A speed=20.1x    frame=25108 fps=482 q=-0.0 size=N/A time=00:17:27.21 bitrate=N/A speed=20.1x    frame=25317 fps=481 q=-0.0 size=N/A time=00:17:35.92 bitrate=N/A speed=20.1x    frame=25502 fps=480 q=-0.0 size=N/A time=00:17:43.64 bitrate=N/A speed=  20x    frame=25693 fps=479 q=-0.0 size=N/A time=00:17:51.61 bitrate=N/A speed=  20x    frame=25907 fps=478 q=-0.0 size=N/A time=00:18:00.53 bitrate=N/A speed=19.9x    frame=26101 fps=477 q=-0.0 size=N/A time=00:18:08.62 bitrate=N/A speed=19.9x    frame=26301 fps=476 q=-0.0 size=N/A time=00:18:16.97 bitrate=N/A speed=19.9x    frame=26553 fps=476 q=-0.0 size=N/A time=00:18:27.48 bitrate=N/A speed=19.9x    frame=26794 fps=476 q=-0.0 size=N/A time=00:18:37.53 bitrate=N/A speed=19.9x    frame=27027 fps=476 q=-0.0 size=N/A time=00:18:47.25 bitrate=N/A speed=19.9x    frame=27267 fps=476 q=-0.0 size=N/A time=00:18:57.26 bitrate=N/A speed=19.8x    frame=27535 fps=476 q=-0.0 size=N/A time=00:19:08.43 bitrate=N/A speed=19.9x    frame=27797 fps=477 q=-0.0 size=N/A time=00:19:19.36 bitrate=N/A speed=19.9x    frame=28050 fps=477 q=-0.0 size=N/A time=00:19:29.91 bitrate=N/A speed=19.9x    frame=28334 fps=477 q=-0.0 size=N/A time=00:19:41.76 bitrate=N/A speed=19.9x    frame=28609 fps=478 q=-0.0 size=N/A time=00:19:53.23 bitrate=N/A speed=19.9x    frame=28831 fps=477 q=-0.0 size=N/A time=00:20:02.49 bitrate=N/A speed=19.9x    frame=29026 fps=477 q=-0.0 size=N/A time=00:20:10.62 bitrate=N/A speed=19.9x    frame=29207 fps=475 q=-0.0 size=N/A time=00:20:18.17 bitrate=N/A speed=19.8x    frame=29426 fps=475 q=-0.0 size=N/A time=00:20:27.30 bitrate=N/A speed=19.8x    frame=29623 fps=474 q=-0.0 size=N/A time=00:20:35.52 bitrate=N/A speed=19.8x    frame=29856 fps=474 q=-0.0 size=N/A time=00:20:45.24 bitrate=N/A speed=19.8x    frame=30111 fps=474 q=-0.0 size=N/A time=00:20:55.87 bitrate=N/A speed=19.8x    frame=30331 fps=474 q=-0.0 size=N/A time=00:21:05.05 bitrate=N/A speed=19.8x    frame=30525 fps=473 q=-0.0 size=N/A time=00:21:13.14 bitrate=N/A speed=19.7x    frame=30765 fps=473 q=-0.0 size=N/A time=00:21:23.15 bitrate=N/A speed=19.7x    frame=31013 fps=473 q=-0.0 size=N/A time=00:21:33.50 bitrate=N/A speed=19.7x    frame=31251 fps=473 q=-0.0 size=N/A time=00:21:43.42 bitrate=N/A speed=19.7x    frame=31470 fps=473 q=-0.0 size=N/A time=00:21:52.56 bitrate=N/A speed=19.7x    frame=31702 fps=472 q=-0.0 size=N/A time=00:22:02.23 bitrate=N/A speed=19.7x    frame=31947 fps=473 q=-0.0 size=N/A time=00:22:12.45 bitrate=N/A speed=19.7x    frame=32176 fps=472 q=-0.0 size=N/A time=00:22:22.00 bitrate=N/A speed=19.7x    frame=32455 fps=473 q=-0.0 size=N/A time=00:22:33.64 bitrate=N/A speed=19.7x    frame=32662 fps=472 q=-0.0 size=N/A time=00:22:42.27 bitrate=N/A speed=19.7x    frame=32879 fps=472 q=-0.0 size=N/A time=00:22:51.32 bitrate=N/A speed=19.7x    frame=33128 fps=472 q=-0.0 size=N/A time=00:23:01.71 bitrate=N/A speed=19.7x    frame=33316 fps=471 q=-0.0 size=N/A time=00:23:09.55 bitrate=N/A speed=19.7x    frame=33565 fps=471 q=-0.0 size=N/A time=00:23:19.94 bitrate=N/A speed=19.7x    [Parsed_psnr_10 @ 0000029e0150ce00] PSNR y:48.517679 u:51.182720 v:51.237002 average:49.243958 min:43.009461 max:inf
[out#0/null @ 0000029e01baba00] video:14532KiB audio:264508KiB subtitle:0KiB other streams:0KiB global headers:0KiB muxing overhead: unknown
frame=33819 fps=472 q=-0.0 Lsize=N/A time=00:23:30.53 bitrate=N/A speed=19.7x    
